<?xml version="1.0" encoding="UTF-8" standalone="no"?>
<svg
   xmlns:dc="http://purl.org/dc/elements/1.1/"
   xmlns:cc="http://creativecommons.org/ns#"
   xmlns:rdf="http://www.w3.org/1999/02/22-rdf-syntax-ns#"
   xmlns:svg="http://www.w3.org/2000/svg"
   xmlns="http://www.w3.org/2000/svg"
   xmlns:sodipodi="http://sodipodi.sourceforge.net/DTD/sodipodi-0.dtd"
   xmlns:inkscape="http://www.inkscape.org/namespaces/inkscape"
   id="Layer_1"
   viewBox="0 0 45 45"
   version="1.1"
   sodipodi:docname="favorited3.svg"
   inkscape:version="0.92.4 (5da689c313, 2019-01-14)">
  <metadata
     id="metadata3737">
    <rdf:RDF>
      <cc:Work
         rdf:about="">
        <dc:format>image/svg+xml</dc:format>
        <dc:type
           rdf:resource="http://purl.org/dc/dcmitype/StillImage" />
        <dc:title></dc:title>
      </cc:Work>
    </rdf:RDF>
  </metadata>
  <defs
     id="defs3735" />
  <sodipodi:namedview
     pagecolor="#ffffff"
     bordercolor="#666666"
     borderopacity="1"
     objecttolerance="10"
     gridtolerance="10"
     guidetolerance="10"
     inkscape:pageopacity="0"
     inkscape:pageshadow="2"
     inkscape:window-width="1289"
     inkscape:window-height="1014"
     id="namedview3733"
     showgrid="false"
     inkscape:zoom="9.5111111"
     inkscape:cx="21.93595"
     inkscape:cy="16.496289"
     inkscape:window-x="300"
     inkscape:window-y="0"
     inkscape:window-maximized="0"
     inkscape:current-layer="Layer_1" />
  <style
     id="style3726">.st0{fill:#29A1AA;} .st1{fill:#FFFFFF;}</style>
  <circle
     class="st0"
     cx="22.5"
     cy="22.5"
     r="22.5"
     id="circle3728" />
  <path
     sodipodi:type="star"
     style="fill:#ffffff"
     id="path3758"
     sodipodi:sides="5"
     sodipodi:cx="22.378614"
     sodipodi:cy="23.874531"
     sodipodi:r1="7.859273"
     sodipodi:r2="15.718546"
     sodipodi:arg1="-1.5741408"
     sodipodi:arg2="-0.94582227"
     inkscape:flatsided="false"
     inkscape:rounded="0.19"
     inkscape:randomized="0"
     d="m 22.352329,16.015302 c 1.983237,-0.0066 7.614462,-6.0485218 9.222833,-4.888171 1.608371,1.160351 -2.349261,8.409646 -1.730099,10.293766 0.619162,1.88412 8.105484,5.372688 7.498938,7.260907 -0.606545,1.88822 -8.724009,0.364443 -10.324583,1.535527 -1.600573,1.171083 -2.604997,9.369025 -4.588233,9.375658 -1.983237,0.0066 -3.042474,-8.184407 -4.650844,-9.344758 -1.608371,-1.160351 -9.7154614,0.417688 -10.3346234,-1.466432 -0.619162,-1.884121 6.8436574,-5.422685 7.4502034,-7.310905 0.606545,-1.888219 -3.399488,-9.11088 -1.798915,-10.281963 1.600574,-1.171083 7.272087,4.833004 9.255323,4.826371 z"
     inkscape:transform-center-x="0.014876575"
     inkscape:transform-center-y="1.0530239"
     transform="matrix(-0.9158027,0,0,-0.90446438,43.008569,45.370327)" />
</svg>
